<svg width="381" height="65" viewBox="0 0 381 65" fill="none" xmlns="http://www.w3.org/2000/svg">
<path d="M371.726 56.52C370.1 54.6904 375.803 43.9679 376.642 41.4506C378.459 35.9991 378.979 31.8188 378.979 26.0589C378.979 23.0864 377.778 20.5861 377.528 17.7587C377.291 15.0634 374.892 13.6262 373.741 11.5536C371.72 7.9163 364.882 3.73713 360.686 3.57575C357.476 3.45228 354.381 2.2409 351.258 2.12523C347.214 1.97544 343.135 2.12523 339.089 2.12523C327.432 2.12523 315.774 2.12523 304.116 2.12523C289.154 2.12523 274.44 2.22131 259.713 5.02628C245.08 7.81365 230.418 7.92733 215.553 7.92733C204.271 7.92733 193.986 8.30465 183.118 4.62336C171.941 0.83769 161.914 2.85049 150.32 2.85049C137.943 2.85049 125.862 2.85518 113.573 4.30102C99.7991 5.92146 85.2594 2.88324 71.7897 6.15447C55.2646 10.1677 37.4609 5.08968 21.1018 9.05552C15.1162 10.5066 8.82106 10.3087 4.58194 15.0188C1.80098 18.1088 2.13242 24.5582 2.60761 28.5973C3.27689 34.2862 4.94428 39.1123 6.15335 44.5531C6.55241 46.3489 6.236 48.5039 7.68446 49.9523C8.87687 51.1447 10.6184 53.4896 11.9957 53.9815C19.5199 56.6688 25.6819 56.0973 33.5522 56.5603C41.2939 57.0157 49.1645 57.2452 57.0427 57.2452C70.7528 57.2452 84.5977 56.7374 98.3021 57.2855C104.667 57.5401 110.849 59.5324 117.159 60.106C122.435 60.5856 127.974 60.1463 133.276 60.1463C151.3 60.1463 169.324 60.1463 187.348 60.1463C209.7 60.1463 231.559 57.9705 253.911 57.9705C271.285 57.9705 288.733 58.6958 306.009 58.6958C308.773 58.6958 311.112 60.1463 314.028 60.1463C317.718 60.1463 322.189 59.8946 325.672 61.2342C329.842 62.838 339.295 63.6287 343.804 62.2415C346.339 61.4614 349.298 59.4468 351.097 57.6482C352.532 56.213 355.133 56.2399 356.496 54.7068C358.776 52.1412 363.023 49.1026 363.023 45.641" stroke="black" stroke-width="3" stroke-linecap="round"/>
</svg>
