<svg width="24" height="24" viewBox="0 0 24 24" fill="none" xmlns="http://www.w3.org/2000/svg">
<path d="M0 0V6.84522H7.1045C8.19744 5.44346 9.90906 4.53956 11.8345 4.53956C13.76 4.53956 15.473 5.44332 16.5659 6.84522H24V0H0ZM19.2056 1.01806H21.4497C22.2486 1.01806 22.8911 1.662 22.8911 2.46094V4.34034C22.8911 5.13926 22.2486 5.78322 21.4497 5.78322H19.2056C18.4066 5.78322 17.7642 5.13928 17.7642 4.34034V2.46094C17.7642 1.66202 18.4066 1.01806 19.2056 1.01806ZM2.63526 1.04004H3.4541V5.78466H2.63526V1.04004ZM4.04296 1.04004H4.88672V5.78466H4.04296V1.04004ZM5.47558 1.04004H6.29442V5.78468H5.47558V1.04004ZM2.02148 1.16748V5.78466H1.17626V2.46094C1.17626 2.17354 1.25738 1.91126 1.41942 1.67432C1.58148 1.43754 1.78268 1.26896 2.02148 1.16748ZM11.8257 5.21924C8.91444 5.21924 6.5537 7.56938 6.5537 10.4663C6.5537 13.3633 8.91444 15.7119 11.8257 15.7119C14.7369 15.7119 17.0977 13.3632 17.0977 10.4663C17.0977 7.5694 14.7369 5.21924 11.8257 5.21924ZM11.8257 6.28418C14.147 6.28418 16.0283 8.1564 16.0283 10.4663C16.0283 12.7762 14.147 14.6484 11.8257 14.6484C9.50436 14.6484 7.62304 12.7762 7.62304 10.4663C7.62304 8.15642 9.50438 6.28418 11.8257 6.28418ZM0 7.81494V24H24V7.81494H17.1826C17.5852 8.61202 17.811 9.5128 17.811 10.4648C17.811 13.7367 15.135 16.3887 11.8345 16.3887C8.53398 16.3887 5.85938 13.7367 5.85938 10.4648C5.85938 9.51256 6.08652 8.61214 6.48926 7.81494H0Z" fill="black"/>
</svg>
