<svg width="24" height="24" viewBox="0 0 24 24" fill="none" xmlns="http://www.w3.org/2000/svg">
<g clip-path="url(#clip0_14_5)">
<path d="M0 0V24H24V0H0ZM19.2 8.4V8.85C19.2 13.8 15.45 19.35 8.7 19.35C6.6 19.35 4.65 18.75 3 17.7H3.9C5.7 17.7 7.2 17.1 8.55 16.05C6.9 16.05 5.55 15 5.1 13.5H5.85C6.15 13.5 6.45 13.5 6.75 13.35C5.1 13.05 3.75 11.55 3.75 9.75C4.2 10.05 4.8 10.2 5.4 10.2C4.35 9.6 3.75 8.4 3.75 7.2C3.75 6.45 3.9 5.85 4.2 5.4C6 7.65 8.85 9 11.85 9.15C11.85 8.85 11.7 8.55 11.7 8.25C11.7 6.15 13.35 4.5 15.45 4.5C16.5 4.5 17.4 4.95 18.15 5.7C19.05 5.55 19.8 5.25 20.55 4.8C20.25 5.7 19.65 6.45 18.9 6.9C19.65 6.75 20.4 6.6 21 6.3C20.55 7.2 19.95 7.8 19.2 8.4Z" fill="black"/>
</g>
<defs>
<clipPath id="clip0_14_5">
<rect width="24" height="24" fill="white"/>
</clipPath>
</defs>
</svg>
